# xmcd
#
# Track frame offsets:
# 150
# 13321
# 28710
# 41381
# 54416
# 67548
# 79719
# 93002
# 106763
# 119450
# 132382
# 144605
#
# Disc length: 2123 seconds
#
#
# Revision: 1
# Processed by: cddbd v1.5.2PL0 Copyright (c) Steve Scherf et al.
# Submitted via: FreeRIP 2.96 
#
DISCID=9208490c
DTITLE=Batidão Sertanejo 2 - CD 4 - Batidão Sertanejo 2 - CD 4
DYEAR=2010
DGENRE=Country
TTITLE0=Tô De Cara (Ao Vivo) Luan Santana
TTITLE1=Vacilei - Henrique and Diego
TTITLE2=Dona Da Minha Paixão - Munhoz and Mariano
TTITLE3=Agora Chora - Humberto and Ronaldo
TTITLE4=Pede Pra Voltar - Luis Guilherme and Nadielly
TTITLE5=Casa Liberada - César and Alessandro
TTITLE6=Cara a Cara - Diogo and Danilo
TTITLE7=Tô a Fim Dela - André and Adriano
TTITLE8=Num Luau - Diego Monteiro
TTITLE9=Código Secreto - Victor Pedroso
TTITLE10=E Eu Com Isso? Bruninho and Davi
TTITLE11=Um Minuto Com Você - João Márcio and Fabiano
EXTD=Ano 2010 - M. P. A.
EXTT0=
EXTT1=
EXTT2=
EXTT3=
EXTT4=
EXTT5=
EXTT6=
EXTT7=
EXTT8=
EXTT9=
EXTT10=
EXTT11=
PLAYORDER=
